G04 #@! TF.GenerationSoftware,KiCad,Pcbnew,(5.1.2)-2*
G04 #@! TF.CreationDate,2019-08-09T21:52:20-03:00*
G04 #@! TF.ProjectId,Yudao,59756461-6f2e-46b6-9963-61645f706362,rev?*
G04 #@! TF.SameCoordinates,Original*
G04 #@! TF.FileFunction,Legend,Top*
G04 #@! TF.FilePolarity,Positive*
%FSLAX46Y46*%
G04 Gerber Fmt 4.6, Leading zero omitted, Abs format (unit mm)*
G04 Created by KiCad (PCBNEW (5.1.2)-2) date 2019-08-09 21:52:20*
%MOMM*%
%LPD*%
G04 APERTURE LIST*
%ADD10C,0.050000*%
%ADD11C,0.120000*%
%ADD12C,0.150000*%
G04 APERTURE END LIST*
D10*
X139700000Y-83820000D02*
X113030000Y-83820000D01*
X139700000Y-85090000D02*
X139700000Y-83820000D01*
X139700000Y-105410000D02*
X139700000Y-85090000D01*
X113030000Y-105410000D02*
X139700000Y-105410000D01*
X113030000Y-83820000D02*
X113030000Y-105410000D01*
D11*
X127730000Y-99160000D02*
X127730000Y-98830000D01*
X121190000Y-99160000D02*
X127730000Y-99160000D01*
X121190000Y-98830000D02*
X121190000Y-99160000D01*
X127730000Y-96420000D02*
X127730000Y-96750000D01*
X121190000Y-96420000D02*
X127730000Y-96420000D01*
X121190000Y-96750000D02*
X121190000Y-96420000D01*
X127535001Y-94575001D02*
X127535001Y-94245001D01*
X120995001Y-94575001D02*
X127535001Y-94575001D01*
X120995001Y-94245001D02*
X120995001Y-94575001D01*
X127535001Y-91835001D02*
X127535001Y-92165001D01*
X120995001Y-91835001D02*
X127535001Y-91835001D01*
X120995001Y-92165001D02*
X120995001Y-91835001D01*
X127535001Y-90525001D02*
X127535001Y-90195001D01*
X120995001Y-90525001D02*
X127535001Y-90525001D01*
X120995001Y-90195001D02*
X120995001Y-90525001D01*
X127535001Y-87785001D02*
X127535001Y-88115001D01*
X120995001Y-87785001D02*
X127535001Y-87785001D01*
X120995001Y-88115001D02*
X120995001Y-87785001D01*
X135188478Y-98358478D02*
G75*
G03X133350000Y-93920000I-1838478J1838478D01*
G01*
X131511522Y-98358478D02*
G75*
G02X133350000Y-93920000I1838478J1838478D01*
G01*
X131550000Y-98370000D02*
X135150000Y-98370000D01*
X135190000Y-89825000D02*
X135190000Y-90070000D01*
X135190000Y-87730000D02*
X135190000Y-87975000D01*
X131550000Y-89825000D02*
X131550000Y-90070000D01*
X131550000Y-87730000D02*
X131550000Y-87975000D01*
X131550000Y-90070000D02*
X135190000Y-90070000D01*
X131550000Y-87730000D02*
X135190000Y-87730000D01*
D12*
X124293333Y-95872380D02*
X123960000Y-95396190D01*
X123721904Y-95872380D02*
X123721904Y-94872380D01*
X124102857Y-94872380D01*
X124198095Y-94920000D01*
X124245714Y-94967619D01*
X124293333Y-95062857D01*
X124293333Y-95205714D01*
X124245714Y-95300952D01*
X124198095Y-95348571D01*
X124102857Y-95396190D01*
X123721904Y-95396190D01*
X124626666Y-94872380D02*
X125245714Y-94872380D01*
X124912380Y-95253333D01*
X125055238Y-95253333D01*
X125150476Y-95300952D01*
X125198095Y-95348571D01*
X125245714Y-95443809D01*
X125245714Y-95681904D01*
X125198095Y-95777142D01*
X125150476Y-95824761D01*
X125055238Y-95872380D01*
X124769523Y-95872380D01*
X124674285Y-95824761D01*
X124626666Y-95777142D01*
X124098334Y-91287381D02*
X123765001Y-90811191D01*
X123526905Y-91287381D02*
X123526905Y-90287381D01*
X123907858Y-90287381D01*
X124003096Y-90335001D01*
X124050715Y-90382620D01*
X124098334Y-90477858D01*
X124098334Y-90620715D01*
X124050715Y-90715953D01*
X124003096Y-90763572D01*
X123907858Y-90811191D01*
X123526905Y-90811191D01*
X124479286Y-90382620D02*
X124526905Y-90335001D01*
X124622143Y-90287381D01*
X124860239Y-90287381D01*
X124955477Y-90335001D01*
X125003096Y-90382620D01*
X125050715Y-90477858D01*
X125050715Y-90573096D01*
X125003096Y-90715953D01*
X124431667Y-91287381D01*
X125050715Y-91287381D01*
X124098334Y-87237381D02*
X123765001Y-86761191D01*
X123526905Y-87237381D02*
X123526905Y-86237381D01*
X123907858Y-86237381D01*
X124003096Y-86285001D01*
X124050715Y-86332620D01*
X124098334Y-86427858D01*
X124098334Y-86570715D01*
X124050715Y-86665953D01*
X124003096Y-86713572D01*
X123907858Y-86761191D01*
X123526905Y-86761191D01*
X125050715Y-87237381D02*
X124479286Y-87237381D01*
X124765001Y-87237381D02*
X124765001Y-86237381D01*
X124669762Y-86380239D01*
X124574524Y-86475477D01*
X124479286Y-86523096D01*
X133254761Y-93507619D02*
X133159523Y-93460000D01*
X133064285Y-93364761D01*
X132921428Y-93221904D01*
X132826190Y-93174285D01*
X132730952Y-93174285D01*
X132778571Y-93412380D02*
X132683333Y-93364761D01*
X132588095Y-93269523D01*
X132540476Y-93079047D01*
X132540476Y-92745714D01*
X132588095Y-92555238D01*
X132683333Y-92460000D01*
X132778571Y-92412380D01*
X132969047Y-92412380D01*
X133064285Y-92460000D01*
X133159523Y-92555238D01*
X133207142Y-92745714D01*
X133207142Y-93079047D01*
X133159523Y-93269523D01*
X133064285Y-93364761D01*
X132969047Y-93412380D01*
X132778571Y-93412380D01*
X134159523Y-93412380D02*
X133588095Y-93412380D01*
X133873809Y-93412380D02*
X133873809Y-92412380D01*
X133778571Y-92555238D01*
X133683333Y-92650476D01*
X133588095Y-92698095D01*
X133203333Y-86957142D02*
X133155714Y-87004761D01*
X133012857Y-87052380D01*
X132917619Y-87052380D01*
X132774761Y-87004761D01*
X132679523Y-86909523D01*
X132631904Y-86814285D01*
X132584285Y-86623809D01*
X132584285Y-86480952D01*
X132631904Y-86290476D01*
X132679523Y-86195238D01*
X132774761Y-86100000D01*
X132917619Y-86052380D01*
X133012857Y-86052380D01*
X133155714Y-86100000D01*
X133203333Y-86147619D01*
X134155714Y-87052380D02*
X133584285Y-87052380D01*
X133870000Y-87052380D02*
X133870000Y-86052380D01*
X133774761Y-86195238D01*
X133679523Y-86290476D01*
X133584285Y-86338095D01*
M02*
