G04 #@! TF.GenerationSoftware,KiCad,Pcbnew,(5.1.2)-2*
G04 #@! TF.CreationDate,2019-08-09T21:52:20-03:00*
G04 #@! TF.ProjectId,Yudao,59756461-6f2e-46b6-9963-61645f706362,rev?*
G04 #@! TF.SameCoordinates,Original*
G04 #@! TF.FileFunction,Soldermask,Top*
G04 #@! TF.FilePolarity,Negative*
%FSLAX46Y46*%
G04 Gerber Fmt 4.6, Leading zero omitted, Abs format (unit mm)*
G04 Created by KiCad (PCBNEW (5.1.2)-2) date 2019-08-09 21:52:20*
%MOMM*%
%LPD*%
G04 APERTURE LIST*
%ADD10C,0.050000*%
%ADD11C,0.100000*%
G04 APERTURE END LIST*
D10*
X139700000Y-83820000D02*
X113030000Y-83820000D01*
X139700000Y-85090000D02*
X139700000Y-83820000D01*
X139700000Y-105410000D02*
X139700000Y-85090000D01*
X113030000Y-105410000D02*
X139700000Y-105410000D01*
X113030000Y-83820000D02*
X113030000Y-105410000D01*
D11*
G36*
X120898228Y-96971703D02*
G01*
X121053100Y-97035853D01*
X121192481Y-97128985D01*
X121311015Y-97247519D01*
X121404147Y-97386900D01*
X121468297Y-97541772D01*
X121501000Y-97706184D01*
X121501000Y-97873816D01*
X121468297Y-98038228D01*
X121404147Y-98193100D01*
X121311015Y-98332481D01*
X121192481Y-98451015D01*
X121053100Y-98544147D01*
X120898228Y-98608297D01*
X120733816Y-98641000D01*
X120566184Y-98641000D01*
X120401772Y-98608297D01*
X120246900Y-98544147D01*
X120107519Y-98451015D01*
X119988985Y-98332481D01*
X119895853Y-98193100D01*
X119831703Y-98038228D01*
X119799000Y-97873816D01*
X119799000Y-97706184D01*
X119831703Y-97541772D01*
X119895853Y-97386900D01*
X119988985Y-97247519D01*
X120107519Y-97128985D01*
X120246900Y-97035853D01*
X120401772Y-96971703D01*
X120566184Y-96939000D01*
X120733816Y-96939000D01*
X120898228Y-96971703D01*
X120898228Y-96971703D01*
G37*
G36*
X128436823Y-96951313D02*
G01*
X128597242Y-96999976D01*
X128709604Y-97060035D01*
X128745078Y-97078996D01*
X128874659Y-97185341D01*
X128981004Y-97314922D01*
X128981005Y-97314924D01*
X129060024Y-97462758D01*
X129108687Y-97623177D01*
X129125117Y-97790000D01*
X129108687Y-97956823D01*
X129060024Y-98117242D01*
X129019477Y-98193100D01*
X128981004Y-98265078D01*
X128874659Y-98394659D01*
X128745078Y-98501004D01*
X128745076Y-98501005D01*
X128597242Y-98580024D01*
X128436823Y-98628687D01*
X128311804Y-98641000D01*
X128228196Y-98641000D01*
X128103177Y-98628687D01*
X127942758Y-98580024D01*
X127794924Y-98501005D01*
X127794922Y-98501004D01*
X127665341Y-98394659D01*
X127558996Y-98265078D01*
X127520523Y-98193100D01*
X127479976Y-98117242D01*
X127431313Y-97956823D01*
X127414883Y-97790000D01*
X127431313Y-97623177D01*
X127479976Y-97462758D01*
X127558995Y-97314924D01*
X127558996Y-97314922D01*
X127665341Y-97185341D01*
X127794922Y-97078996D01*
X127830396Y-97060035D01*
X127942758Y-96999976D01*
X128103177Y-96951313D01*
X128228196Y-96939000D01*
X128311804Y-96939000D01*
X128436823Y-96951313D01*
X128436823Y-96951313D01*
G37*
G36*
X134732915Y-95727334D02*
G01*
X134841491Y-95760271D01*
X134841494Y-95760272D01*
X134877600Y-95779571D01*
X134941556Y-95813756D01*
X135029264Y-95885736D01*
X135101244Y-95973443D01*
X135135429Y-96037399D01*
X135154728Y-96073505D01*
X135154729Y-96073508D01*
X135187666Y-96182084D01*
X135196000Y-96266702D01*
X135196000Y-96773297D01*
X135187666Y-96857916D01*
X135155252Y-96964767D01*
X135154728Y-96966495D01*
X135151944Y-96971703D01*
X135101244Y-97066557D01*
X135029264Y-97154264D01*
X134941557Y-97226244D01*
X134877601Y-97260429D01*
X134841495Y-97279728D01*
X134841492Y-97279729D01*
X134732916Y-97312666D01*
X134620000Y-97323787D01*
X134507085Y-97312666D01*
X134398509Y-97279729D01*
X134398506Y-97279728D01*
X134362400Y-97260429D01*
X134298444Y-97226244D01*
X134210737Y-97154264D01*
X134138757Y-97066557D01*
X134095239Y-96985141D01*
X134081625Y-96964766D01*
X134064298Y-96947439D01*
X134043924Y-96933826D01*
X134021285Y-96924448D01*
X133997252Y-96919668D01*
X133972748Y-96919668D01*
X133948715Y-96924448D01*
X133926076Y-96933826D01*
X133905701Y-96947440D01*
X133888374Y-96964767D01*
X133874761Y-96985141D01*
X133831244Y-97066557D01*
X133759264Y-97154264D01*
X133671557Y-97226244D01*
X133607601Y-97260429D01*
X133571495Y-97279728D01*
X133571492Y-97279729D01*
X133462916Y-97312666D01*
X133350000Y-97323787D01*
X133237085Y-97312666D01*
X133128509Y-97279729D01*
X133128506Y-97279728D01*
X133092400Y-97260429D01*
X133028444Y-97226244D01*
X132940737Y-97154264D01*
X132877622Y-97077359D01*
X132860297Y-97060034D01*
X132839923Y-97046420D01*
X132817284Y-97037043D01*
X132793250Y-97032263D01*
X132768746Y-97032263D01*
X132744713Y-97037044D01*
X132722074Y-97046421D01*
X132701700Y-97060035D01*
X132684373Y-97077362D01*
X132670759Y-97097736D01*
X132661382Y-97120375D01*
X132656000Y-97156660D01*
X132656000Y-97321000D01*
X131504000Y-97321000D01*
X131504000Y-95719000D01*
X132656000Y-95719000D01*
X132656000Y-95883341D01*
X132658402Y-95907727D01*
X132665515Y-95931176D01*
X132677066Y-95952787D01*
X132692611Y-95971729D01*
X132711553Y-95987274D01*
X132733164Y-95998825D01*
X132756613Y-96005938D01*
X132780999Y-96008340D01*
X132805385Y-96005938D01*
X132828834Y-95998825D01*
X132850445Y-95987274D01*
X132869387Y-95971729D01*
X132877608Y-95962657D01*
X132940736Y-95885736D01*
X133028443Y-95813756D01*
X133092399Y-95779571D01*
X133128505Y-95760272D01*
X133128508Y-95760271D01*
X133237084Y-95727334D01*
X133350000Y-95716213D01*
X133462915Y-95727334D01*
X133571491Y-95760271D01*
X133571494Y-95760272D01*
X133607600Y-95779571D01*
X133671556Y-95813756D01*
X133759264Y-95885736D01*
X133831244Y-95973443D01*
X133874761Y-96054859D01*
X133888375Y-96075234D01*
X133905702Y-96092561D01*
X133926076Y-96106174D01*
X133948715Y-96115552D01*
X133972748Y-96120332D01*
X133997252Y-96120332D01*
X134021285Y-96115552D01*
X134043924Y-96106174D01*
X134064299Y-96092560D01*
X134081626Y-96075233D01*
X134095239Y-96054860D01*
X134138756Y-95973444D01*
X134210736Y-95885736D01*
X134298443Y-95813756D01*
X134362399Y-95779571D01*
X134398505Y-95760272D01*
X134398508Y-95760271D01*
X134507084Y-95727334D01*
X134620000Y-95716213D01*
X134732915Y-95727334D01*
X134732915Y-95727334D01*
G37*
G36*
X120703229Y-92386704D02*
G01*
X120858101Y-92450854D01*
X120997482Y-92543986D01*
X121116016Y-92662520D01*
X121209148Y-92801901D01*
X121273298Y-92956773D01*
X121306001Y-93121185D01*
X121306001Y-93288817D01*
X121273298Y-93453229D01*
X121209148Y-93608101D01*
X121116016Y-93747482D01*
X120997482Y-93866016D01*
X120858101Y-93959148D01*
X120703229Y-94023298D01*
X120538817Y-94056001D01*
X120371185Y-94056001D01*
X120206773Y-94023298D01*
X120051901Y-93959148D01*
X119912520Y-93866016D01*
X119793986Y-93747482D01*
X119700854Y-93608101D01*
X119636704Y-93453229D01*
X119604001Y-93288817D01*
X119604001Y-93121185D01*
X119636704Y-92956773D01*
X119700854Y-92801901D01*
X119793986Y-92662520D01*
X119912520Y-92543986D01*
X120051901Y-92450854D01*
X120206773Y-92386704D01*
X120371185Y-92354001D01*
X120538817Y-92354001D01*
X120703229Y-92386704D01*
X120703229Y-92386704D01*
G37*
G36*
X128241824Y-92366314D02*
G01*
X128402243Y-92414977D01*
X128469362Y-92450853D01*
X128550079Y-92493997D01*
X128679660Y-92600342D01*
X128786005Y-92729923D01*
X128786006Y-92729925D01*
X128865025Y-92877759D01*
X128913688Y-93038178D01*
X128930118Y-93205001D01*
X128913688Y-93371824D01*
X128865025Y-93532243D01*
X128824478Y-93608101D01*
X128786005Y-93680079D01*
X128679660Y-93809660D01*
X128550079Y-93916005D01*
X128550077Y-93916006D01*
X128402243Y-93995025D01*
X128241824Y-94043688D01*
X128116805Y-94056001D01*
X128033197Y-94056001D01*
X127908178Y-94043688D01*
X127747759Y-93995025D01*
X127599925Y-93916006D01*
X127599923Y-93916005D01*
X127470342Y-93809660D01*
X127363997Y-93680079D01*
X127325524Y-93608101D01*
X127284977Y-93532243D01*
X127236314Y-93371824D01*
X127219884Y-93205001D01*
X127236314Y-93038178D01*
X127284977Y-92877759D01*
X127363996Y-92729925D01*
X127363997Y-92729923D01*
X127470342Y-92600342D01*
X127599923Y-92493997D01*
X127680640Y-92450853D01*
X127747759Y-92414977D01*
X127908178Y-92366314D01*
X128033197Y-92354001D01*
X128116805Y-92354001D01*
X128241824Y-92366314D01*
X128241824Y-92366314D01*
G37*
G36*
X128241824Y-88316314D02*
G01*
X128372381Y-88355918D01*
X128377658Y-88357519D01*
X128402243Y-88364977D01*
X128469362Y-88400853D01*
X128550079Y-88443997D01*
X128679660Y-88550342D01*
X128786005Y-88679923D01*
X128786006Y-88679925D01*
X128865025Y-88827759D01*
X128913688Y-88988178D01*
X128930118Y-89155001D01*
X128913688Y-89321824D01*
X128865025Y-89482243D01*
X128824478Y-89558101D01*
X128786005Y-89630079D01*
X128679660Y-89759660D01*
X128550079Y-89866005D01*
X128550077Y-89866006D01*
X128402243Y-89945025D01*
X128241824Y-89993688D01*
X128116805Y-90006001D01*
X128033197Y-90006001D01*
X127908178Y-89993688D01*
X127747759Y-89945025D01*
X127599925Y-89866006D01*
X127599923Y-89866005D01*
X127470342Y-89759660D01*
X127363997Y-89630079D01*
X127325524Y-89558101D01*
X127284977Y-89482243D01*
X127236314Y-89321824D01*
X127219884Y-89155001D01*
X127236314Y-88988178D01*
X127284977Y-88827759D01*
X127363996Y-88679925D01*
X127363997Y-88679923D01*
X127470342Y-88550342D01*
X127599923Y-88443997D01*
X127680640Y-88400853D01*
X127747759Y-88364977D01*
X127772345Y-88357519D01*
X127777621Y-88355918D01*
X127908178Y-88316314D01*
X128033197Y-88304001D01*
X128116805Y-88304001D01*
X128241824Y-88316314D01*
X128241824Y-88316314D01*
G37*
G36*
X120703229Y-88336704D02*
G01*
X120858101Y-88400854D01*
X120997482Y-88493986D01*
X121116016Y-88612520D01*
X121209148Y-88751901D01*
X121273298Y-88906773D01*
X121306001Y-89071185D01*
X121306001Y-89238817D01*
X121273298Y-89403229D01*
X121209148Y-89558101D01*
X121116016Y-89697482D01*
X120997482Y-89816016D01*
X120858101Y-89909148D01*
X120703229Y-89973298D01*
X120538817Y-90006001D01*
X120371185Y-90006001D01*
X120206773Y-89973298D01*
X120051901Y-89909148D01*
X119912520Y-89816016D01*
X119793986Y-89697482D01*
X119700854Y-89558101D01*
X119636704Y-89403229D01*
X119604001Y-89238817D01*
X119604001Y-89071185D01*
X119636704Y-88906773D01*
X119700854Y-88751901D01*
X119793986Y-88612520D01*
X119912520Y-88493986D01*
X120051901Y-88400854D01*
X120206773Y-88336704D01*
X120371185Y-88304001D01*
X120538817Y-88304001D01*
X120703229Y-88336704D01*
X120703229Y-88336704D01*
G37*
G36*
X134868228Y-88081703D02*
G01*
X135023100Y-88145853D01*
X135162481Y-88238985D01*
X135281015Y-88357519D01*
X135374147Y-88496900D01*
X135438297Y-88651772D01*
X135471000Y-88816184D01*
X135471000Y-88983816D01*
X135438297Y-89148228D01*
X135374147Y-89303100D01*
X135281015Y-89442481D01*
X135162481Y-89561015D01*
X135023100Y-89654147D01*
X134868228Y-89718297D01*
X134703816Y-89751000D01*
X134536184Y-89751000D01*
X134371772Y-89718297D01*
X134216900Y-89654147D01*
X134077519Y-89561015D01*
X133958985Y-89442481D01*
X133865853Y-89303100D01*
X133801703Y-89148228D01*
X133769000Y-88983816D01*
X133769000Y-88816184D01*
X133801703Y-88651772D01*
X133865853Y-88496900D01*
X133958985Y-88357519D01*
X134077519Y-88238985D01*
X134216900Y-88145853D01*
X134371772Y-88081703D01*
X134536184Y-88049000D01*
X134703816Y-88049000D01*
X134868228Y-88081703D01*
X134868228Y-88081703D01*
G37*
G36*
X132368228Y-88081703D02*
G01*
X132523100Y-88145853D01*
X132662481Y-88238985D01*
X132781015Y-88357519D01*
X132874147Y-88496900D01*
X132938297Y-88651772D01*
X132971000Y-88816184D01*
X132971000Y-88983816D01*
X132938297Y-89148228D01*
X132874147Y-89303100D01*
X132781015Y-89442481D01*
X132662481Y-89561015D01*
X132523100Y-89654147D01*
X132368228Y-89718297D01*
X132203816Y-89751000D01*
X132036184Y-89751000D01*
X131871772Y-89718297D01*
X131716900Y-89654147D01*
X131577519Y-89561015D01*
X131458985Y-89442481D01*
X131365853Y-89303100D01*
X131301703Y-89148228D01*
X131269000Y-88983816D01*
X131269000Y-88816184D01*
X131301703Y-88651772D01*
X131365853Y-88496900D01*
X131458985Y-88357519D01*
X131577519Y-88238985D01*
X131716900Y-88145853D01*
X131871772Y-88081703D01*
X132036184Y-88049000D01*
X132203816Y-88049000D01*
X132368228Y-88081703D01*
X132368228Y-88081703D01*
G37*
M02*
